####
#
# OBJ File Generated by Meshlab
#
####
# Object UVSphere200.obj
#
# Vertices: 102
# Faces: 200
#
####
mtllib ./UVSphere200.obj.mtl

vn 0.1452615 0.0133638 -0.9893031
v 5.6948504 1.4721138 -50.5776443
vn -0.0898393 0.2572291 -0.9621654
v -3.5989544 15.0925350 -48.0796700
vn -0.3478909 -0.0432914 -0.9365350
v -17.4184361 -3.4758964 -47.6536407
vn 0.4671833 -0.0828442 -0.8802708
v 23.4280872 -5.0785365 -44.5769882
vn 0.2236860 -0.3542341 -0.9080104
v 10.6591320 -20.0529423 -45.2781181
vn -0.1154600 -0.2410850 -0.9636115
v -5.5801673 -12.0095491 -49.1195450
vn -0.6390085 -0.2084966 -0.7404035
v -31.5677681 -10.8697882 -38.1342773
vn -0.3547366 0.4143364 -0.8381451
v -18.5233917 21.8478298 -41.5424767
vn -0.0472399 0.5825862 -0.8113950
v -4.9684854 30.3825798 -40.0215569
vn 0.3102903 0.3513018 -0.8833499
v 17.5678158 18.7258282 -43.7089233
vn 0.0707305 -0.6479399 -0.7584003
v 2.9113374 -31.9763508 -39.2739487
vn 0.6604737 0.2131514 -0.7199591
v 33.5290680 9.0891705 -36.6805191
vn 0.5004885 -0.4793097 -0.7209532
v 24.9895496 -24.6527100 -36.3410110
vn -0.3586044 -0.5228513 -0.7733237
v -18.1043758 -30.3454418 -36.6058578
vn -0.5711607 0.1738484 -0.8022171
v -27.6933155 9.4336147 -41.3488846
vn 0.2365026 0.5963199 -0.7671175
v 11.6299639 31.1124725 -37.7359505
vn -0.6740354 0.4577640 -0.5797658
v -33.1738014 24.6747704 -29.4655075
vn -0.7909253 0.1008539 -0.6035443
v -40.6849365 4.6890879 -29.3557186
vn 0.7517931 0.4311504 -0.4989152
v 36.7221146 22.0514164 -26.8840542
vn 0.7330338 -0.1207852 -0.6693822
v 38.4131851 -3.1621146 -33.1132355
vn 0.6077009 -0.6649793 -0.4341685
v 31.2372856 -33.0013809 -22.4620686
vn 0.3404860 -0.7921079 -0.5065910
v 16.9250298 -39.3581276 -26.4429493
vn -0.8815805 -0.1915918 -0.4314030
v -44.1177521 -8.5586901 -22.9010563
vn -0.3096484 0.7133718 -0.6286641
v -15.2886562 36.9399033 -30.8434105
vn 0.2011805 0.8020581 -0.5623426
v 9.2270832 40.5611916 -29.4730339
vn 0.5061730 0.5446767 -0.6686676
v 27.6430569 27.2717590 -32.3759041
vn 0.8980442 0.0631756 -0.4353453
v 46.2775383 1.8745496 -20.5283642
vn 0.8235253 -0.3584622 -0.4396714
v 41.1128387 -20.0401039 -22.2523937
vn -0.2643302 -0.8285211 -0.4936419
v -10.2370462 -42.2771950 -26.6920300
vn -0.6809660 -0.5622664 -0.4691928
v -35.0333824 -27.7913132 -24.4202690
vn 0.0357195 0.9779326 -0.2058448
v 1.9300225 49.1771088 -13.1033802
vn -0.9270113 0.1798872 -0.3290756
v -47.5605774 9.8133602 -15.0764875
vn -0.5704302 0.7367809 -0.3629923
v -30.1545258 36.3434906 -18.5845490
vn -0.2370653 0.8726545 -0.4269360
v -12.9868536 43.0983353 -22.6656036
vn 0.5522274 0.7074471 -0.4410936
v 27.8552494 34.3834038 -23.8705807
vn 0.0738392 -0.8964127 -0.4370265
v 4.0144153 -45.6951141 -21.4516697
vn -0.8465971 0.4808544 -0.2281502
v -44.5702171 21.9560642 -9.7561779
vn 0.3348501 0.9112836 -0.2396614
v 15.9554987 46.1309700 -12.9557343
vn -0.1874932 -0.9690925 -0.1603312
v -9.4853296 -48.8428383 -7.8173919
vn -0.7433375 -0.6319907 -0.2191741
v -37.8096466 -30.9956169 -12.4583673
vn -0.6536297 0.7475595 -0.1179958
v -35.3262520 36.1889343 -4.5301762
vn 0.7318158 0.6317320 -0.2556566
v 35.9316521 34.1852303 -9.8790493
vn 0.7763669 -0.6229728 -0.0957044
v 40.8273468 -29.8903637 -5.6088829
vn -0.3370990 0.9330146 -0.1258892
v -13.6767178 48.5846558 -4.0271034
vn 0.5467542 0.8241072 -0.1480106
v 28.6792297 41.2860260 -6.4119043
vn 0.9828789 -0.1545204 -0.1003627
v 49.8423691 -6.3977718 -5.0856791
vn 0.4997729 -0.8431180 -0.1984418
v 24.4031754 -42.9902878 -9.6790524
vn -0.4378783 -0.8881007 0.1397851
v -22.4844131 -45.2983589 3.8381338
vn -0.9924005 -0.0976297 -0.0748985
v -50.1190681 -6.5232606 -4.0943990
vn 0.9216799 0.3218265 -0.2166425
v 46.0198860 16.9262447 -12.7467365
vn 0.1934760 -0.9703580 -0.1448191
v 9.7583771 -49.4556427 -6.7661052
vn -0.5820389 -0.7982183 -0.1551721
v -27.7836628 -41.4863052 -7.6896901
vn 0.8027166 0.5914355 0.0764869
v 40.8314857 29.8985844 0.6830692
vn -0.0351921 -0.9840501 0.1743760
v -3.4385211 -49.1246376 10.7784605
vn -0.8710208 -0.4826087 -0.0917149
v -44.7197151 -23.6693268 -3.8195910
vn -0.9743719 0.0889791 0.2065970
v -49.1025238 5.6182370 10.0040684
vn -0.9609782 0.2762932 0.0135330
v -48.4261742 14.2716703 -2.0543611
vn -0.4984515 0.8591604 0.1157128
v -25.7155743 42.9841156 4.9518418
vn 0.2742902 0.9539487 0.1214363
v 15.6297874 47.2802963 9.3110485
vn -0.7439286 -0.6035694 0.2868349
v -36.9321709 -30.2542896 17.7559910
vn -0.9262712 -0.2558829 0.2766688
v -46.5557480 -14.1308146 13.7730427
vn 0.9294391 0.3655914 0.0498582
v 46.4993553 19.3914623 0.5500936
vn 0.9909072 0.1151402 0.0696113
v 50.0785599 4.7896142 5.8817983
vn 0.9413096 -0.1416921 0.3063651
v 47.8694000 -5.6929102 15.3982363
vn 0.8897421 -0.4231187 0.1712589
v 43.7223701 -24.6426010 6.8620067
vn -0.2244858 -0.8806885 0.4171257
v -12.6899576 -44.8089066 20.0592957
vn -0.7766601 0.6090145 0.1609360
v -40.2680550 30.8974113 4.5047412
vn -0.1449408 0.9706878 0.1917221
v -5.9646792 49.3325386 10.1629419
vn 0.4226587 -0.8958074 0.1374360
v 20.3486671 -45.6793671 8.9794235
vn 0.2324846 -0.8448308 0.4818837
v 11.8565598 -43.2789421 24.0177155
vn -0.8648266 0.3544581 0.3555760
v -42.2620926 19.7507706 19.3189564
vn 0.5251255 0.7800164 0.3403200
v 27.0227642 39.5291023 17.3040829
vn 0.6664985 -0.6745909 0.3173434
v 35.5390778 -33.0188522 14.6929207
vn -0.2451834 0.8459740 0.4735114
v -14.2168369 42.5046539 23.3386555
vn 0.0843216 0.8457581 0.5268615
v 4.7761302 44.1195450 24.4144764
vn 0.6988526 0.5240136 0.4868418
v 34.9162178 26.8870335 24.9710121
vn 0.8856580 0.2619428 0.3834006
v 45.5218506 12.0358696 19.2673759
vn -0.8928093 0.0304757 0.4494027
v -44.4512825 0.3314402 23.8812466
vn -0.4919906 0.7840979 0.3783328
v -24.5060234 39.7365532 19.3155861
vn 0.7619829 -0.3646696 0.5351618
v 38.0179825 -17.8922100 28.2652435
vn -0.5087425 -0.6328133 0.5837194
v -26.1639881 -33.2028923 28.4763680
vn -0.7557167 0.1932097 0.6257494
v -38.9976120 9.7527838 30.3420391
vn 0.3569334 0.5977626 0.7178290
v 17.5002441 29.3356342 37.4956436
vn 0.5265173 -0.5612044 0.6386151
v 28.2135448 -27.0612679 31.9709797
vn 0.7680849 -0.0680095 0.6367263
v 38.3517876 -4.5861659 32.7799988
vn -0.7404504 -0.1985061 0.6421281
v -37.3641472 -9.1475086 33.0244370
vn -0.6308990 0.5247201 0.5715202
v -30.7941914 26.2180405 30.5967789
vn -0.3082910 0.6554644 0.6894369
v -14.5226097 32.0576439 36.3260307
vn 0.3545127 -0.4466466 0.8214789
v 16.2949715 -24.8332691 40.7324142
vn 0.5874099 0.2137042 0.7805640
v 30.9391022 10.7526855 38.8720665
vn 0.5022640 -0.2198729 0.8362935
v 23.7943649 -10.7794161 43.0329437
vn -0.1244249 -0.7181123 0.6847140
v -6.1707311 -34.3724785 37.2004356
vn -0.4656314 -0.2302950 0.8544891
v -25.7800732 -12.4652987 41.7461090
vn 0.1850703 -0.6006017 0.7778346
v 9.9444075 -32.6903572 37.8039665
vn -0.1917230 -0.4392442 0.8776714
v -11.1880970 -23.5401611 43.4787140
vn 0.1463712 -0.3045090 0.9411959
v 7.5379267 -13.6452589 48.1482506
vn -0.0797038 0.5276025 0.8457440
v -3.9796903 28.3220959 42.1372833
vn -0.1744590 0.1061392 0.9789273
v -11.1599798 2.4991434 49.4815254
vn -0.4938606 0.2262935 0.8395790
v -24.5008907 11.1852121 43.0497742
vn 0.1844738 0.3069364 0.9336806
v 8.8036165 16.1274357 47.3596153
vn 0.2333630 0.0310543 0.9718937
v 13.4751539 1.3300753 48.6899567
vn -0.1114763 -0.1401568 0.9838339
v -5.4789820 -4.4030991 49.9750481
# 102 vertices, 0 vertices normals


usemtl material_0
vt 0.1111111 1.0000000
vt 0.0000000 1.0000000
vt 0.0000000 0.8888889
f 6/1/6 3/2/3 2/3/2
vt 0.8888889 0.2222222
vt 0.8888889 0.3333333
vt 0.8333334 0.2777777
f 6/4/6 2/5/2 1/6/1
vt 0.1111111 0.8888889
f 1/3/1 4/7/4 5/1/5
vt 0.2222222 1.0000000
f 1/7/1 5/8/5 6/1/6
vt 0.2222222 0.8888889
f 1/9/1 10/8/10 4/7/4
vt 0.7777778 0.2222222
f 3/4/3 15/6/15 8/10/8
vt 0.3333333 1.0000000
f 3/9/3 8/11/8 2/8/2
vt 0.3333333 0.8888889
f 2/12/2 10/11/10 1/9/1
vt 0.4444444 1.0000000
f 5/11/5 11/12/11 6/13/6
vt 0.4444444 0.8888889
f 3/12/3 6/14/6 14/13/14
vt 0.9444445 0.2777777
f 2/5/2 8/4/8 9/15/9
vt 0.5555556 1.0000000
f 2/13/2 9/14/9 10/16/10
vt 0.5555556 0.8888889
f 6/14/6 11/17/11 14/16/14
vt 0.6666667 1.0000000
f 3/17/3 14/18/14 7/16/7
vt 0.6666667 0.8888889
f 3/19/3 7/18/7 15/17/15
vt 1.0000000 0.3333333
f 10/20/10 9/5/9 16/15/16
vt 0.7777778 1.0000000
f 10/21/10 12/18/12 4/19/4
vt 0.7777778 0.8888889
f 4/21/4 13/19/13 5/22/5
vt 1.0000000 0.2222222
f 4/23/4 12/20/12 20/15/20
f 5/15/5 13/4/13 11/23/11
vt 0.0000000 0.1111111
vt 0.0555556 0.1666666
vt 0.0000000 0.2222222
f 10/24/10 16/25/16 26/26/26
vt 0.8888889 1.0000000
f 4/21/4 20/22/20 13/27/13
vt 0.8888889 0.8888889
f 11/22/11 29/28/29 14/27/14
vt 1.0000000 1.0000000
f 7/29/7 18/27/18 15/28/15
vt 0.1111111 0.2222222
f 8/25/8 15/30/15 17/26/17
vt 1.0000000 0.8888889
f 9/31/9 24/29/24 25/28/25
vt 0.1111111 0.1111111
f 9/32/9 25/30/25 16/25/16
vt 0.0000000 0.7777778
f 10/7/10 26/3/26 12/33/12
vt 0.1111111 0.7777778
f 11/7/11 13/33/13 22/34/22
f 7/34/7 14/9/14 30/7/30
vt 0.2222222 0.7777778
f 8/35/8 17/9/17 24/34/24
f 8/24/8 24/32/24 9/25/9
vt 0.1666667 0.1666666
f 12/30/12 26/32/26 19/36/19
f 20/12/20 28/9/28 13/35/13
vt 0.2222222 0.2222222
f 13/37/13 28/30/28 21/36/21
vt 0.2222222 0.1111111
f 13/37/13 21/36/21 22/38/22
f 7/38/7 23/36/23 18/32/18
vt 0.3333333 0.7777778
f 15/39/15 18/12/18 17/35/17
vt 0.2777778 0.1666666
f 16/40/16 25/37/25 26/38/26
f 11/14/11 22/12/22 36/39/36
vt 0.4444444 0.7777778
f 11/14/11 36/39/36 29/41/29
f 7/41/7 30/17/30 23/14/23
vt 0.5555556 0.7777778
f 17/41/17 33/42/33 24/17/24
vt 0.3333333 0.2222222
f 24/37/24 34/40/34 25/43/25
vt 0.3333333 0.1111111
f 26/44/26 25/43/25 35/40/35
f 12/17/12 19/42/19 27/19/27
f 12/38/12 27/44/27 20/40/20
vt 0.9444445 0.0555555
vt 0.8888889 0.1111111
vt 0.8888889 0.0555555
f 35/45/35 19/46/19 26/47/26
vt 0.6666667 0.7777778
f 20/48/20 27/19/27 28/42/28
f 14/19/14 29/48/29 30/22/30
vt 0.7777778 0.7777778
f 18/49/18 32/22/32 17/48/17
vt 0.3888889 0.1666666
f 24/43/24 33/44/33 34/50/34
f 25/49/25 34/28/34 31/22/31
vt 0.4444444 0.2222222
f 25/51/25 31/43/31 38/50/38
vt 0.4444444 0.1111111
f 36/50/36 22/52/22 51/51/51
f 23/44/23 32/52/32 18/50/18
vt 0.5000000 0.1666666
f 19/52/19 35/53/35 42/51/42
vt 0.8888889 0.7777778
f 19/28/19 42/49/42 50/54/50
f 19/31/19 50/28/50 27/54/27
vt 1.0000000 0.7777778
f 28/55/28 43/31/43 21/54/21
vt 0.5555556 0.2222222
f 21/53/21 47/56/47 22/51/22
vt 0.0000000 0.6666667
f 22/34/22 47/33/47 51/57/51
vt 0.1111111 0.6666667
f 29/57/29 52/58/52 30/34/30
vt 0.8888889 0.0000000
f 30/45/30 40/47/40 55/59/55
f 30/34/30 55/58/55 23/35/23
vt 0.2222222 0.6666667
f 32/58/32 37/60/37 17/35/17
f 17/60/17 37/39/37 33/35/33
vt 0.3333333 0.6666667
f 34/39/34 44/60/44 31/61/31
vt 0.5555556 0.1111111
f 25/56/25 38/53/38 45/62/45
f 25/61/25 45/41/45 35/39/35
f 35/52/35 45/62/45 42/53/42
vt 0.6111112 0.1666666
f 36/62/36 51/63/51 39/56/39
vt 0.6666667 0.2222222
f 36/63/36 39/64/39 29/56/29
vt 0.6666667 0.1111111
f 30/65/30 52/64/52 40/63/40
vt 0.4444444 0.6666667
f 23/41/23 55/61/55 49/66/49
f 23/42/23 49/41/49 32/66/32
f 32/62/32 57/65/57 37/63/37
vt 0.7222223 0.1666666
f 33/64/33 37/65/37 41/67/41
vt 0.5555556 0.6666667
f 34/68/34 33/42/33 44/66/44
f 27/42/27 46/68/46 28/48/28
vt 0.6666667 0.6666667
f 21/69/21 43/48/43 47/68/47
f 29/49/29 39/48/39 52/69/52
f 42/64/42 53/67/53 50/10/50
vt 0.7777778 0.6666667
f 27/70/27 50/49/50 46/69/46
f 28/49/28 46/70/46 43/54/43
vt 0.7777778 0.1111111
f 39/10/39 48/67/48 52/71/52
f 37/71/37 67/67/67 41/65/41
vt 0.8888889 0.6666667
f 33/70/33 41/72/41 44/54/44
vt 0.8333334 0.1666666
f 50/10/50 53/71/53 62/73/62
f 46/72/46 50/55/50 63/54/63
f 32/73/32 49/4/49 57/10/57
vt 1.0000000 0.6666667
f 31/55/31 59/72/59 38/74/38
vt 0.0000000 0.6666666
vt 0.0000000 0.5555556
vt 0.1111111 0.6666666
f 47/75/47 43/76/43 69/77/69
f 47/73/47 69/46/69 51/4/51
f 40/73/40 52/71/52 55/46/55
vt 0.9444445 0.1666666
f 49/46/49 56/78/56 57/4/57
f 41/4/41 58/78/58 44/23/44
vt 0.1111111 0.5555556
f 38/77/38 59/76/59 45/79/45
vt 1.0000000 0.1111111
f 50/23/50 62/78/62 63/80/63
vt 0.2222222 0.6666666
f 46/81/46 65/77/65 43/79/43
f 65/78/65 73/46/73 43/80/43
vt 0.2222222 0.5555556
f 43/79/43 73/82/73 69/81/69
vt 0.3333333 0.6666666
f 51/82/51 54/83/54 39/81/39
vt 0.3333333 0.5555556
f 39/84/39 54/83/54 48/82/48
vt 0.4444444 0.6666666
f 52/85/52 48/83/48 60/84/60
vt 0.4444444 0.5555556
f 52/85/52 60/84/60 55/86/55
vt 0.5555556 0.6666666
f 49/85/49 55/86/55 61/87/61
vt 0.0555556 0.0555555
vt 0.0000000 0.0000000
f 37/88/37 57/24/57 67/89/67
vt 0.5555556 0.5555556
f 31/86/31 44/90/44 68/87/68
vt 0.6666667 0.6666666
f 31/91/31 68/87/68 59/90/59
vt 0.6666667 0.5555556
f 45/90/45 59/92/59 72/91/72
vt 0.9444445 0.1111111
f 42/93/42 45/45/45 53/80/53
f 63/88/63 64/32/64 46/24/46
vt 0.7777778 0.6666666
f 46/94/46 64/91/64 65/92/65
vt 0.1111111 0.0000000
f 48/95/48 54/32/54 66/88/66
vt 0.7777778 0.5555556
f 45/94/45 72/92/72 53/96/53
vt 0.8888889 0.6666666
f 51/94/51 69/96/69 54/97/54
vt 0.8888889 0.5555556
f 55/97/55 60/96/60 61/98/61
vt 1.0000000 0.6666666
f 49/97/49 61/98/61 56/99/56
f 57/95/57 56/88/56 71/89/71
vt 1.0000000 0.5555556
f 57/99/57 71/98/71 67/100/67
vt 0.1666667 0.0555555
f 41/101/41 67/32/67 58/95/58
vt 0.0000000 0.4444444
f 58/76/58 79/102/79 68/79/68
f 58/38/58 68/32/68 44/101/44
vt 0.2222222 0.0000000
f 62/101/62 53/103/53 77/38/77
f 58/101/58 67/95/67 79/103/79
vt 0.1111111 0.4444444
f 53/102/53 72/104/72 76/79/76
vt 0.2777778 0.0555555
f 62/38/62 77/103/77 63/105/63
f 69/82/69 70/79/70 54/104/54
vt 0.2222222 0.4444444
f 48/104/48 66/106/66 81/82/81
f 48/106/48 81/84/81 60/82/60
f 56/44/56 61/38/61 78/105/78
vt 0.3333333 0.4444444
f 68/107/68 74/84/74 75/106/75
f 68/86/68 75/84/75 59/107/59
vt 0.4444444 0.4444444
f 53/107/53 76/108/76 77/86/77
vt 0.3333333 0.0000000
f 63/105/63 77/109/77 64/44/64
f 64/86/64 80/108/80 65/90/65
vt 0.5555556 0.4444444
f 65/90/65 80/108/80 73/110/73
f 56/105/56 78/103/78 71/109/71
f 67/92/67 71/90/71 87/110/87
vt 0.6666667 0.4444444
f 67/92/67 87/110/87 79/111/79
vt 0.3888889 0.0555555
f 79/109/79 74/112/74 68/44/68
f 77/111/77 85/96/85 64/92/64
vt 0.7777778 0.4444444
f 73/96/73 70/111/70 69/113/69
f 54/96/54 70/113/70 66/98/66
vt 0.8888889 0.4444444
f 59/114/59 75/98/75 72/113/72
f 73/100/73 84/98/84 70/114/70
vt 1.0000000 0.4444444
f 60/100/60 86/114/86 61/115/61
f 61/52/61 86/44/86 78/112/78
vt 0.4444444 0.0000000
f 71/116/71 78/52/78 82/112/82
f 64/116/64 85/112/85 80/109/80
vt 0.5000000 0.0555555
f 80/116/80 84/117/84 73/52/73
vt 0.1111111 0.4444444
vt 0.0000000 0.4444444
vt 0.0000000 0.3333333
f 70/118/70 92/119/92 66/120/66
f 74/117/74 79/62/79 88/52/88
vt 0.1111111 0.3333333
f 77/120/77 76/121/76 90/118/90
vt 0.2222222 0.4444444
f 70/121/70 84/122/84 94/118/94
vt 0.5555556 0.0000000
f 70/62/70 94/117/94 92/123/92
f 71/117/71 82/116/82 87/123/87
vt 0.2222222 0.3333333
f 79/121/79 87/124/87 88/122/88
vt 0.3333333 0.4444444
f 74/122/74 88/124/88 75/125/75
vt 0.3333333 0.3333333
f 72/124/72 75/126/75 83/125/83
vt 0.4444444 0.4444444
f 72/126/72 83/127/83 76/125/76
vt 0.4444444 0.3333333
f 66/128/66 92/127/92 81/126/81
vt 0.5555556 0.4444444
f 60/127/60 81/128/81 86/129/86
vt 0.6111112 0.0555555
f 78/130/78 86/62/86 82/123/82
vt 0.5555556 0.3333333
f 75/129/75 88/128/88 97/131/97
vt 0.6666667 0.4444444
f 75/131/75 97/132/97 83/129/83
vt 0.6666667 0.3333333
f 77/132/77 90/131/90 85/133/85
f 84/62/84 89/130/89 94/65/94
vt 0.7777778 0.4444444
f 81/134/81 93/132/93 86/133/86
vt 0.7777778 0.3333333
f 82/135/82 86/134/86 99/133/99
vt 0.8888889 0.4444444
f 76/134/76 83/135/83 90/136/90
f 82/5/82 99/136/99 87/135/87
vt 0.6666667 0.0000000
f 80/65/80 85/130/85 91/137/91
f 80/123/80 91/137/91 84/130/84
vt 0.7222223 0.0555555
f 84/65/84 91/137/91 89/138/89
f 92/138/92 94/71/94 95/65/95
vt 1.0000000 0.4444444
f 85/136/85 90/5/90 91/139/91
f 92/20/92 95/139/95 81/5/81
f 81/121/81 95/120/95 93/26/93
f 86/26/86 93/30/93 99/121/99
f 87/121/87 99/30/99 88/124/88
f 97/30/97 100/37/100 83/124/83
f 88/124/88 99/37/99 97/126/97
f 83/43/83 100/126/100 90/37/90
f 90/128/90 101/126/101 91/43/91
vt 0.7777778 0.0000000
f 91/140/91 96/71/96 89/138/89
f 94/140/94 89/138/89 96/137/96
f 94/43/94 96/51/96 95/128/95
f 93/131/93 98/128/98 99/51/99
f 90/131/90 100/51/100 101/56/101
vt 0.8333334 0.0555555
f 101/141/101 96/71/96 91/140/91
f 95/131/95 102/56/102 93/133/93
f 93/46/93 102/71/102 98/141/98
f 99/64/99 98/133/98 97/56/97
f 96/135/96 102/133/102 95/64/95
f 97/135/97 98/64/98 100/10/100
f 100/135/100 98/10/98 101/5/101
f 96/141/96 101/59/101 102/46/102
f 98/59/98 102/141/102 101/140/101
# 200 faces, 141 coords texture

# End of File
