####
#
# OBJ File Generated by Meshlab
#
####
# Object scan_decimated1.2.obj
#
# Vertices: 608
# Faces: 999
#
####
v 0.0458432 0.0734810 -0.0377888
v 0.0175207 0.0895034 -0.0505072
v 0.0495592 0.0753229 -0.0361976
v 0.0254045 0.0819315 -0.0457851
v 0.0631435 0.0710395 -0.0357404
v 0.0371014 0.0869565 -0.0343315
v 0.0321706 0.0756940 -0.0405394
v 0.0467308 0.0775885 -0.0175532
v 0.0435180 0.0835417 -0.0309674
v 0.0121334 0.0717808 -0.0533986
v 0.0223660 0.0634309 -0.0501145
v 0.0419462 0.0855210 -0.0222097
v 0.0214295 0.1033171 -0.0422143
v 0.0759743 0.0638157 -0.0164891
v 0.0539776 0.0794920 -0.0266576
v 0.0710134 0.0737928 -0.0282090
v 0.0613077 0.0774006 -0.0227039
v 0.0724627 0.0703182 -0.0152420
v 0.0162926 0.0944299 0.0093076
v 0.0250648 0.0896042 0.0038345
v 0.0309473 0.0971306 -0.0073934
v 0.0339551 0.0894387 -0.0055799
v 0.0371630 0.0829369 -0.0090722
v 0.0365626 0.0943211 -0.0217153
v 0.0278135 0.0914530 -0.0407186
v -0.0093776 0.1072987 -0.0028916
v -0.0193692 0.1022874 -0.0097770
v 0.0000296 0.1030713 0.0050281
v 0.0007232 0.1155435 -0.0018525
v 0.0062257 0.0971593 0.0088634
v -0.0040951 0.0963230 0.0085378
v -0.0244097 0.0999321 -0.0151888
v 0.0117605 0.0743233 0.0269194
v 0.0222182 0.0625190 0.0387118
v -0.0004708 0.0753526 0.0283359
v 0.0119855 0.0745416 0.0225082
v 0.0169941 0.0668108 0.0229992
v 0.0149815 0.0713301 0.0343067
v 0.0164418 0.0700468 0.0522280
v 0.0211645 0.0628966 0.0488442
v 0.0079024 0.0737176 0.0430045
v -0.0242074 0.0910055 -0.0061721
v -0.0200536 0.0893061 -0.0023370
v -0.0300745 0.0850653 -0.0120790
v -0.0156764 0.0940882 0.0028268
v -0.0218777 0.0808434 0.0032111
v -0.0153985 0.0848475 0.0059439
v -0.0193647 0.0293639 0.0083528
v -0.0165464 0.0336470 0.0072901
v -0.0107840 0.0349449 0.0160827
v -0.0240874 0.0187189 0.0130830
v -0.0219539 0.0606860 -0.0329228
v -0.0308560 0.0691711 -0.0229500
v -0.0308276 0.0641727 -0.0161199
v 0.0259235 0.1515394 -0.0088564
v 0.0142462 0.1521735 -0.0043031
v 0.0303402 0.1467403 -0.0139510
v 0.0239721 0.1552989 -0.0191483
v 0.0209043 0.1457938 -0.0000688
v 0.0014241 0.1414578 -0.0002729
v 0.0219709 0.1047851 -0.0006876
v 0.0265969 0.1105078 -0.0042314
v 0.0140094 0.1043420 0.0029579
v 0.0081756 0.1146178 -0.0004578
v -0.0004893 0.0365663 0.0500748
v 0.0073191 0.0352545 0.0595643
v -0.0008419 0.0271912 0.0600112
v 0.0157198 0.0362629 0.0404837
v 0.0229284 0.0304940 0.0416721
v 0.0102388 0.0182097 0.0806008
v 0.0036074 0.0238217 0.0682388
v 0.0218789 0.0247171 0.0612979
v 0.0138581 0.0345407 0.0527422
v 0.0075613 0.0265881 0.0635917
v 0.0187649 0.0299375 0.0586185
v -0.0181191 0.0667083 0.0104950
v -0.0163662 0.0598696 0.0132126
v -0.0056087 0.0804310 0.0154561
v -0.0040146 0.0768469 0.0203283
v -0.0139900 0.0718654 0.0135692
v 0.0008708 0.0795959 0.0200206
v -0.0232485 0.0507405 -0.0191728
v -0.0237053 0.0526805 -0.0073703
v -0.0246496 0.0439130 -0.0196199
v 0.0306864 0.1183103 -0.0209620
v 0.0299536 0.1064861 -0.0231365
v 0.0338135 0.1257797 -0.0129590
v 0.0270090 0.1226309 -0.0336456
v -0.0114530 0.0590387 0.0219410
v -0.0113821 0.0550626 0.0311406
v -0.0125383 0.0628561 0.0330388
v -0.0106836 0.0638290 0.0241877
v -0.0087575 0.0691314 0.0356175
v 0.0081829 0.1445381 0.0013930
v 0.0007429 0.1306156 -0.0002048
v -0.0047937 0.1392024 -0.0036043
v 0.0125579 0.1346416 -0.0072069
v 0.0071561 0.1326951 -0.0074332
v -0.0138877 0.0112402 0.0252968
v -0.0233136 0.0160174 0.0158862
v -0.0113384 0.0206357 0.0340882
v -0.0234602 0.0131802 0.0236513
v -0.0156212 0.0160322 0.0238954
v 0.0304931 0.0829427 -0.0001582
v 0.0513107 0.0625249 -0.0116584
v 0.0524971 0.0739335 -0.0164836
v 0.0412707 0.0750564 -0.0121025
v 0.0406872 0.0664180 -0.0125043
v 0.0022361 0.0671128 0.0537731
v 0.0051570 0.0580267 0.0534138
v -0.0022494 0.0531764 0.0483404
v -0.0045225 0.0708369 0.0434251
v -0.0109926 0.0603764 0.0391384
v -0.0034508 0.0866871 0.0122219
v 0.0128211 0.0785857 0.0178312
v 0.0057217 0.0887964 0.0121675
v 0.0149995 0.0881630 0.0118568
v 0.0051886 0.1666112 -0.0267538
v 0.0189638 0.1641019 -0.0224043
v 0.0157330 0.1605714 -0.0122509
v 0.0178269 0.1634955 -0.0277160
v -0.0246160 0.0148768 -0.0395983
v -0.0192318 0.0102049 -0.0431520
v -0.0108036 0.0062915 -0.0540302
v 0.0037430 0.0112575 -0.0618724
v -0.0093472 0.0089488 -0.0511223
v -0.0164196 0.0189882 -0.0425036
v -0.0236309 0.0270229 -0.0327731
v -0.0295230 0.0064806 -0.0887714
v 0.0022232 0.0133410 -0.0560164
v 0.0002149 0.0212889 -0.0492136
v -0.0268617 0.0039375 -0.0659781
v -0.0420652 0.0047335 -0.0797281
v -0.0424100 0.0037600 -0.0846400
v -0.0330800 0.0041900 -0.0921400
v -0.0139241 0.0060010 -0.0865479
v 0.0275436 0.0578087 0.0055380
v 0.0312424 0.0657645 -0.0008640
v 0.0347494 0.0617968 -0.0050373
v 0.0347231 0.0490165 0.0018721
v 0.0193243 0.0452016 0.0160992
v 0.0100104 0.0435813 0.0215357
v 0.0269666 0.0457171 0.0115873
v 0.0227168 0.0289688 0.0165389
v 0.0177350 0.0338979 0.0208772
v 0.0087619 0.0371389 0.0205547
v 0.0022761 0.0435017 0.0216312
v 0.0068695 0.0456831 0.0261444
v 0.0135267 0.0506232 0.0224252
v 0.0151309 0.0514096 0.0324024
v 0.0207040 0.0541172 0.0134208
v 0.0202268 0.0689634 0.0120985
v 0.0199684 0.0727544 0.0122464
v 0.0288094 0.0728845 0.0032725
v 0.0155660 0.0729723 0.0162170
v -0.0099658 0.1197085 -0.0106811
v -0.0098284 0.1344914 -0.0094992
v -0.0265733 0.0589584 -0.0061085
v 0.0009019 0.0454818 0.0341096
v -0.0052209 0.0482226 0.0366694
v 0.0016356 0.0448840 0.0417273
v 0.0289409 0.1255016 -0.0008051
v 0.0350816 0.1191135 -0.0074962
v 0.0327716 0.1136444 -0.0122370
v 0.0301042 0.1048930 -0.0118514
v 0.0267483 0.1184246 -0.0003846
v 0.0250677 0.1431568 -0.0052065
v 0.0173362 0.0320771 0.0304937
v 0.0218065 0.0218915 0.0268071
v 0.0204625 0.0265776 0.0305839
v 0.0221735 0.0150288 0.0344988
v 0.0024698 0.0366672 0.0281241
v 0.0018406 0.0373219 0.0238350
v -0.0131275 0.1135948 -0.0183946
v -0.0112297 0.1114117 -0.0097103
v -0.0160389 0.0238170 0.0208567
v -0.0251195 0.0233725 0.0022781
v -0.0252929 0.0245200 -0.0157981
v -0.0285259 0.0204857 -0.0071396
v -0.0209783 0.0284281 -0.0017522
v -0.0299007 0.0134217 0.0043059
v -0.0391633 0.0097841 0.0205334
v -0.0578249 0.0055634 0.0117104
v -0.0405881 0.0111814 -0.0008806
v -0.0617067 0.0028484 -0.0028925
v -0.0541599 0.0041543 0.0441929
v -0.0405951 0.0075939 0.0583824
v -0.0328152 0.0055678 0.0635102
v -0.0316604 -0.0002127 0.0696493
v -0.0451753 0.0033621 0.0574457
v -0.0404547 0.0046825 0.0605116
v -0.0267272 0.0057889 0.0736981
v -0.0275300 0.0007900 0.0759800
v -0.0296700 0.0007000 0.0733900
v -0.0318700 0.0005400 0.0707500
v -0.0333200 0.0004400 0.0690100
v -0.0351400 0.0010500 0.0674300
v -0.0369600 0.0016700 0.0658500
v -0.0387900 0.0022800 0.0642700
v -0.0406000 0.0029000 0.0626900
v -0.0448300 0.0030600 0.0576600
v -0.0490500 0.0032400 0.0526200
v -0.0157163 0.0281886 -0.0422166
v 0.0012250 0.0359613 -0.0473170
v 0.0182236 0.0123329 -0.0542088
v 0.0144112 0.0162306 -0.0478137
v -0.0211346 0.0389808 -0.0045037
v 0.0382433 0.0333215 0.0026186
v 0.0334158 0.0383175 0.0072596
v 0.0423101 0.0419488 -0.0059789
v -0.0332204 0.0169292 -0.0151240
v -0.0242029 0.0297776 -0.0213819
v 0.0185075 0.1200778 -0.0017066
v 0.0079380 0.1275100 -0.0033936
v 0.0052903 0.1231320 0.0004736
v -0.0062614 0.0359787 0.0412674
v -0.0092917 0.0300843 0.0312826
v -0.0051556 0.0353704 0.0273631
v 0.0747866 0.0350065 -0.0226199
v 0.0709299 0.0335806 -0.0424766
v 0.0623641 0.0348375 -0.0441279
v -0.0696532 0.0052169 0.0257517
v -0.0626344 0.0034575 0.0337335
v -0.0752303 0.0039126 0.0172305
v -0.0645474 0.0043129 0.0353328
v -0.0597921 0.0063378 0.0313497
v -0.0670800 0.0043400 0.0329200
v -0.0766900 0.0053500 0.0234300
v -0.0705930 0.0034801 0.0118949
v 0.0287488 0.0276154 -0.0448637
v 0.0294936 0.0324850 -0.0397865
v 0.0097757 0.1282175 -0.0455874
v 0.0197544 0.1194511 -0.0421239
v 0.0176506 0.1102237 -0.0409361
v 0.0270893 0.1255318 -0.0209868
v 0.0243328 0.1086939 -0.0349908
v 0.0279574 0.1364984 -0.0324029
v 0.0597354 0.0540735 -0.0082461
v 0.0639000 0.0686363 -0.0110093
v 0.0192737 0.0594764 -0.0505466
v 0.0220474 0.0389639 -0.0417723
v 0.0217151 0.0516184 -0.0440901
v 0.0114700 0.0490400 -0.0446100
v -0.0018709 0.0425680 -0.0399996
v -0.0151837 0.0052337 0.0854895
v -0.0114444 0.0125887 0.0715945
v -0.0141200 0.0009900 0.0910800
v -0.0177000 0.0017100 0.0854300
v 0.0585608 0.0332661 -0.0150532
v 0.0541808 0.0168539 -0.0123365
v 0.0562662 0.0310873 -0.0502034
v 0.0516781 0.0350087 -0.0436585
v 0.0452602 0.0275055 -0.0476005
v -0.0091023 0.0180187 0.0420763
v -0.0800415 0.0054330 -0.0404158
v -0.0571779 0.0047038 -0.0570900
v -0.0534509 0.0061872 -0.0715983
v -0.0725100 0.0012000 -0.0686300
v -0.0746800 0.0020800 -0.0643400
v -0.0671900 0.0029400 -0.0697100
v -0.0647100 0.0036800 -0.0704600
v 0.0513588 0.0116067 -0.0013369
v 0.0514297 0.0115580 -0.0088325
v 0.0400903 0.0213343 -0.0007240
v -0.0185556 0.0360597 -0.0310057
v 0.0786790 0.0315265 -0.0173163
v 0.0833900 0.0247600 -0.0254600
v 0.0827900 0.0254100 -0.0226500
v 0.0821500 0.0259600 -0.0201900
v -0.0233299 0.0128296 0.0068153
v 0.0152359 0.0142341 0.0854892
v 0.0261742 0.0239247 0.0537299
v 0.0278965 0.0185384 0.0592166
v 0.0252344 0.0314323 0.0529803
v 0.0303600 0.0153800 0.0485600
v 0.0291800 0.0177100 0.0535500
v 0.0264500 0.0182300 0.0662700
v 0.0261500 0.0176800 0.0687900
v 0.0249500 0.0154700 0.0787200
v 0.0359452 0.1245707 -0.0050584
v 0.0442039 0.0366475 -0.0100726
v 0.0451850 0.0322422 -0.0105459
v 0.0495276 0.0360600 -0.0165179
v 0.0386432 0.0110864 -0.0001767
v 0.0351512 0.0121680 0.0101984
v 0.0434845 0.0111347 0.0145087
v 0.0288605 0.1421464 -0.0275077
v 0.0684566 0.0539944 -0.0198193
v 0.0561434 0.0162824 -0.0511381
v 0.0530300 0.0151400 -0.0554000
v 0.0583600 0.0174100 -0.0546400
v 0.0599100 0.0180800 -0.0544200
v 0.0634800 0.0202200 -0.0535600
v 0.0666700 0.0221900 -0.0527800
v 0.0648442 0.0221545 -0.0521868
v -0.0216857 0.0106290 0.0572103
v -0.0058521 0.0212774 0.0543468
v 0.0697196 0.0175828 -0.0117561
v 0.0612285 0.0158872 -0.0106918
v 0.0668988 0.0168635 -0.0051341
v 0.0612800 0.0167300 0.0051600
v 0.0577700 0.0158900 0.0089900
v 0.0313814 0.1315062 -0.0073830
v 0.0244688 0.1305945 -0.0052854
v -0.0008139 0.1273537 -0.0448103
v 0.0059570 0.1080724 -0.0463828
v 0.0542505 0.0380558 -0.0266484
v 0.0451824 0.0367221 -0.0382125
v 0.0483338 0.0401801 -0.0243030
v 0.0744400 0.0204600 -0.0107200
v 0.0678700 0.0185900 -0.0027800
v 0.0765900 0.0211200 -0.0125000
v 0.0401023 0.0650135 -0.0375616
v 0.0321482 0.0626132 -0.0415206
v 0.0342620 0.0486148 -0.0349356
v 0.0362201 0.0414391 -0.0341426
v 0.0430698 0.0438864 -0.0271347
v 0.0438708 0.0539301 -0.0286177
v 0.0721028 0.0286944 -0.0490030
v 0.0742999 0.0174874 -0.0508178
v 0.0710600 0.0186500 -0.0516300
v 0.0754500 0.0151200 -0.0504700
v 0.0815993 0.0106602 -0.0459609
v 0.0846800 0.0096900 -0.0514500
v 0.0869900 0.0136000 -0.0412800
v 0.0864800 0.0168600 -0.0394300
v 0.0857800 0.0198300 -0.0376800
v -0.0439285 0.0053240 -0.0656055
v 0.0240439 0.0176159 -0.0443016
v 0.0392204 0.0141771 -0.0455348
v -0.0076234 0.0289557 0.0482475
v -0.0144113 0.0455217 -0.0301314
v -0.0006686 0.0467714 -0.0410451
v -0.0023880 0.0550055 -0.0443802
v 0.0228585 0.1369736 -0.0217983
v 0.0308300 0.0109500 -0.0732600
v 0.0464600 0.0138100 -0.0607300
v 0.0420200 0.0129400 -0.0643300
v 0.0442959 0.0465020 -0.0196242
v 0.0445336 0.0528394 -0.0193319
v 0.0476762 0.0574849 -0.0169109
v 0.0452107 0.0429419 -0.0233177
v -0.0473100 0.0038900 -0.0813300
v 0.0755308 0.0638306 -0.0235703
v 0.0711422 0.0637522 -0.0326821
v 0.0271918 0.1353095 -0.0107159
v 0.0095900 0.0084500 0.1060300
v 0.0084300 0.0082900 0.1060300
v 0.0075600 0.0081600 0.1060300
v 0.0060500 0.0079100 0.1060300
v 0.0047300 0.0079700 0.1047300
v 0.0039098 0.0102155 0.0969514
v 0.0108919 0.0128367 0.0918096
v 0.0144404 0.0121480 0.0954219
v 0.0178700 0.0098000 0.1060300
v 0.0159000 0.0097400 0.1060300
v 0.0143500 0.0094500 0.1060300
v 0.0134100 0.0092200 0.1060300
v 0.0127500 0.0090600 0.1060300
v 0.0113500 0.0087500 0.1060300
v 0.0107800 0.0094100 0.1033400
v 0.0107300 0.0086300 0.1060300
v 0.0217141 0.0091171 0.0261841
v 0.0853600 0.0216500 -0.0340400
v 0.0818217 0.0250235 -0.0292817
v 0.0818828 0.0220239 -0.0406569
v 0.0781464 0.0294316 -0.0361198
v 0.0845000 0.0232000 -0.0302700
v 0.0839100 0.0240200 -0.0277100
v -0.0244100 0.0047100 -0.1003800
v -0.0172600 0.0050500 -0.1060300
v -0.0219148 0.0049199 -0.1022817
v -0.0176412 0.0056253 -0.0992174
v -0.0165200 0.0053400 -0.1060300
v -0.0158600 0.0053500 -0.1060300
v 0.0261125 0.0162849 0.0134665
v 0.0705891 0.0557809 -0.0099237
v 0.0342074 0.0105116 0.0379592
v 0.0390400 0.0128400 0.0332600
v 0.0338300 0.0129800 0.0404200
v 0.0315400 0.0130400 0.0435800
v 0.0313129 0.0136430 0.0439904
v -0.0102066 0.0070534 0.0920231
v -0.0089100 0.0002200 0.0969600
v -0.0108600 0.0005100 0.0951100
v -0.0134600 0.0008500 0.0921200
v -0.0857300 0.0051200 -0.0458200
v -0.0784574 0.0059191 -0.0496008
v -0.0869900 0.0058800 -0.0394000
v -0.0869900 0.0057700 -0.0418600
v -0.0869900 0.0055900 -0.0429000
v -0.0869800 0.0053400 -0.0439700
v -0.0869900 0.0051400 -0.0444600
v -0.0869900 0.0050300 -0.0446600
v -0.0869900 0.0049800 -0.0447400
v -0.0869900 0.0048900 -0.0448900
v -0.0869900 0.0048700 -0.0449200
v -0.0869900 0.0047700 -0.0451200
v -0.0869900 0.0048600 -0.0449500
v -0.0864600 0.0046800 -0.0458100
v -0.0847700 0.0043700 -0.0480700
v -0.0830800 0.0040700 -0.0503400
v -0.0869900 0.0059000 -0.0387000
v -0.0869900 0.0058800 -0.0351000
v -0.0519824 0.0070139 0.0445147
v -0.0316473 0.0107956 0.0310653
v -0.0223011 0.0113614 0.0440321
v -0.0532700 0.0034100 0.0475800
v -0.0575000 0.0035800 0.0425400
v -0.0622900 0.0039600 0.0377300
v -0.0302486 0.0134645 -0.0339138
v -0.0037816 0.0027240 0.1000179
v 0.0047400 0.0075800 0.1060300
v 0.0041200 0.0073500 0.1060300
v 0.0036000 0.0071400 0.1060300
v 0.0029600 0.0074500 0.1040500
v 0.0031000 0.0068200 0.1060300
v 0.0019200 0.0058600 0.1060300
v 0.0010900 0.0049000 0.1060300
v 0.0005200 0.0041900 0.1060300
v -0.0003300 0.0029800 0.1060300
v -0.0007600 0.0024200 0.1060300
v -0.0013100 0.0021600 0.1052900
v -0.0013600 0.0014900 0.1060300
v -0.0015000 0.0014200 0.1060300
v -0.0015000 0.0014000 0.1060300
v -0.0027700 0.0007800 0.1041200
v -0.0014800 0.0013800 0.1060300
v -0.0014700 0.0013600 0.1060300
v 0.0615234 0.0602442 -0.0327561
v 0.0042124 0.0092104 -0.0743881
v 0.0084642 0.0057814 -0.1033980
v 0.0117300 0.0052200 -0.1060300
v 0.0106600 0.0052500 -0.1060300
v 0.0105500 0.0061200 -0.0997800
v 0.0089700 0.0072000 -0.0915100
v 0.0182100 0.0088000 -0.0837900
v -0.0347897 0.0090042 -0.0417654
v -0.0421674 0.0095127 -0.0167557
v -0.0028397 0.0114545 0.0898716
v -0.0015000 0.0014300 0.1060300
v -0.0075100 -0.0000000 0.0982200
v -0.0528406 0.0054015 -0.0763540
v -0.0620300 0.0042800 -0.0713900
v -0.0574100 0.0041600 -0.0745000
v -0.0513200 0.0040000 -0.0786200
v 0.0314025 0.0269692 0.0101797
v 0.0332416 0.0155115 0.0071100
v 0.0852775 0.0084907 -0.0497658
v 0.0814589 0.0087722 -0.0489176
v 0.0801300 0.0122300 -0.0509900
v 0.0567944 0.0556810 -0.0151443
v -0.0130489 0.0052801 -0.1043038
v -0.0048908 0.0051302 -0.1011667
v -0.0129700 0.0053700 -0.1060300
v -0.0126700 0.0053700 -0.1055400
v -0.0115900 0.0054800 -0.1060300
v -0.0106800 0.0056000 -0.1060300
v -0.0105700 0.0056100 -0.1060300
v -0.0090200 0.0056500 -0.1060300
v -0.0079700 0.0055900 -0.1060300
v -0.0068200 0.0054300 -0.1060300
v 0.0241300 0.0139500 0.0861300
v 0.0234100 0.0125900 0.0927000
v 0.0221900 0.0098700 0.1060300
v 0.0222600 0.0100200 0.1052900
v 0.0210600 0.0098300 0.1060300
v 0.0187800 0.0098100 0.1060300
v 0.0192300 0.0098400 0.1060300
v -0.0047900 0.0050100 -0.1060300
v -0.0039800 0.0047600 -0.1060300
v -0.0032200 0.0046000 -0.1060300
v -0.0000900 0.0043300 -0.1060300
v -0.0021600 0.0044700 -0.1060300
v 0.0006600 0.0045000 -0.1046200
v 0.0020000 0.0044100 -0.1060300
v 0.0009800 0.0043300 -0.1060300
v 0.0052820 0.0059289 -0.0968246
v 0.0080100 0.0054700 -0.1060300
v 0.0080500 0.0054700 -0.1060300
v 0.0080800 0.0054700 -0.1060300
v 0.0080900 0.0054700 -0.1060300
v 0.0081000 0.0054700 -0.1060300
v 0.0081300 0.0054700 -0.1060300
v 0.0082800 0.0055200 -0.1053200
v 0.0081600 0.0054600 -0.1060300
v 0.0081800 0.0054600 -0.1060300
v 0.0083100 0.0054300 -0.1060300
v 0.0088300 0.0053700 -0.1060300
v 0.0084700 0.0054000 -0.1060300
v 0.0076700 0.0054900 -0.1060300
v 0.0079600 0.0054800 -0.1060300
v -0.0869800 0.0057100 -0.0287700
v -0.0869900 0.0058300 -0.0329000
v -0.0726115 0.0021600 -0.0006695
v -0.0859604 0.0047492 0.0016532
v -0.0869900 0.0047000 0.0021500
v -0.0869900 0.0047000 0.0013100
v -0.0869900 0.0047000 0.0013000
v -0.0869900 0.0047000 0.0012900
v -0.0869900 0.0046900 0.0004900
v -0.0869900 0.0046400 -0.0026300
v -0.0869900 0.0046000 -0.0056200
v -0.0869900 0.0046400 -0.0087600
v -0.0267070 0.0775905 -0.0030824
v -0.0317892 0.0717836 -0.0122569
v -0.0869900 0.0049400 -0.0165700
v -0.0869800 0.0052500 -0.0217500
v -0.0869900 0.0054200 -0.0246900
v -0.0725795 0.0035172 -0.0205451
v 0.0026546 0.1522442 -0.0394764
v 0.0002837 0.1620621 -0.0307443
v 0.0196094 0.1353542 -0.0412899
v 0.0290890 0.1479879 -0.0307118
v 0.0207743 0.1505585 -0.0371393
v 0.0076663 0.1645432 -0.0317722
v -0.0004254 0.1372151 -0.0431943
v 0.0304975 0.1477692 -0.0227677
v 0.0132605 0.1462262 -0.0415691
v -0.0084655 0.1490912 -0.0336051
v 0.0809400 0.0243200 -0.0176500
v 0.0752880 0.0219649 -0.0118368
v 0.0275213 0.0203195 0.0500297
v -0.0824000 0.0039000 -0.0514500
v -0.0801000 0.0033200 -0.0552600
v -0.0774000 0.0027300 -0.0597400
v -0.0761200 0.0024400 -0.0619000
v -0.0869900 0.0047700 -0.0126200
v 0.0283257 0.0054804 0.0328681
v 0.0336386 0.0084684 0.0245715
v 0.0381200 0.0103317 0.0308534
v 0.0272208 0.0089856 0.0364451
v 0.0521688 0.0143455 0.0144117
v 0.0542500 0.0150600 0.0128300
v 0.0524600 0.0146000 0.0147100
v 0.0506600 0.0141300 0.0165900
v 0.0488600 0.0136700 0.0184700
v 0.0470700 0.0132100 0.0203600
v 0.0449000 0.0128400 0.0235900
v 0.0422200 0.0129400 0.0282800
v 0.0398500 0.0128200 0.0321300
v 0.0526827 0.0680567 -0.0373898
v 0.0544659 0.0605368 -0.0304250
v -0.0141651 0.0151173 0.0366879
v 0.0798100 0.0229100 -0.0158600
v 0.0789400 0.0218400 -0.0145300
v -0.0538797 0.0053562 -0.0308353
v 0.0028100 0.0045800 -0.1060300
v 0.0036400 0.0047700 -0.1060300
v 0.0047300 0.0050600 -0.1060300
v 0.0063000 0.0054300 -0.1060300
v 0.0068400 0.0054900 -0.1060300
v 0.0072400 0.0055000 -0.1060300
v 0.0209499 0.0547338 0.0398072
v 0.0164066 0.0550193 0.0481411
v -0.0170000 0.0053400 -0.1060300
v -0.0170600 0.0052900 -0.1060300
v -0.0172600 0.0050300 -0.1060300
v -0.0172600 0.0050400 -0.1060300
v -0.0172500 0.0050300 -0.1060300
v -0.0172000 0.0051000 -0.1060300
v -0.0171900 0.0051200 -0.1060300
v -0.0171000 0.0052500 -0.1060300
v -0.0171400 0.0052000 -0.1060300
v -0.0172500 0.0050100 -0.1060300
v -0.0171000 0.0053300 -0.1058900
v -0.0135030 0.1457110 -0.0167068
v -0.0070680 0.1583786 -0.0192913
v 0.0026887 0.1652843 -0.0167437
v -0.0101647 0.1532665 -0.0285009
v -0.0066165 0.1524252 -0.0103440
v 0.0049795 0.1567236 -0.0049138
v -0.0257239 0.0794350 -0.0313022
v -0.0161765 0.0749819 -0.0433771
v -0.0288917 0.0910393 -0.0170593
v -0.0292910 0.0852669 -0.0231278
v -0.0222184 0.0986795 -0.0323742
v -0.0028904 0.1102643 -0.0429914
v -0.0069180 0.0642690 -0.0499017
v -0.0033657 0.0699753 -0.0516370
v -0.0027522 0.0848119 -0.0496784
v -0.0074697 0.0995906 -0.0471716
v -0.0153591 0.1361164 -0.0225242
v -0.0129443 0.1135083 -0.0303555
v -0.0140502 0.0605279 -0.0403056
v 0.0115857 0.0569048 -0.0496269
v 0.0091629 0.0976427 -0.0509113
v -0.0153308 0.1450194 -0.0228203
v -0.0098782 0.1223690 -0.0356995
v -0.0083019 0.0439035 0.0139748
v -0.0121504 0.0503975 0.0138707
v -0.0186353 0.0481961 0.0012429
v -0.0072199 0.0493456 0.0213519
v -0.0848288 0.0052095 0.0115188
v -0.0869900 0.0045900 0.0085900
v -0.0869900 0.0045200 0.0085600
v -0.0869900 0.0043700 0.0085000
v -0.0869900 0.0041800 0.0083800
v -0.0869900 0.0048900 0.0072000
v -0.0869900 0.0060800 0.0048300
v -0.0820914 0.0056471 0.0067918
v -0.0869900 0.0047000 0.0084900
v -0.0869900 0.0047600 0.0085300
v -0.0869900 0.0047800 0.0083500
v -0.0869900 0.0048400 0.0076700
v -0.0869900 0.0048600 0.0065100
v -0.0869800 0.0048300 0.0050600
v -0.0869900 0.0047000 0.0036700
# 608 vertices, 0 vertices normals

f 4 2 25
f 4 25 6
f 3 9 15
f 15 9 12
f 7 6 1
f 1 6 9
f 4 6 7
f 1 9 3
f 25 2 13
f 11 2 4
f 2 587 13
f 10 2 11
f 314 4 7
f 3 15 5
f 15 16 5
f 13 587 306
f 4 314 11
f 8 15 12
f 6 24 9
f 6 25 24
f 25 13 236
f 7 313 314
f 7 1 313
f 18 14 16
f 17 16 15
f 106 105 239
f 377 14 18
f 9 24 12
f 2 10 587
f 586 10 240
f 10 11 240
f 1 3 542
f 542 3 5
f 5 16 345
f 345 16 344
f 16 14 344
f 15 8 106
f 15 106 17
f 17 18 16
f 106 239 17
f 17 239 18
f 104 22 20
f 23 24 22
f 20 22 21
f 19 20 61
f 21 22 24
f 24 23 12
f 20 19 117
f 23 22 104
f 153 104 20
f 19 116 117
f 19 61 63
f 61 20 21
f 154 104 153
f 116 19 30
f 104 107 23
f 45 26 27
f 26 28 29
f 28 26 45
f 27 26 175
f 175 26 29
f 28 45 31
f 174 32 27
f 174 27 175
f 64 29 28
f 42 27 32
f 45 27 43
f 27 42 43
f 32 575 44
f 175 29 156
f 28 31 30
f 33 38 37
f 34 37 38
f 41 35 112
f 109 39 41
f 39 109 110
f 109 41 112
f 33 37 36
f 37 152 155
f 93 35 79
f 35 33 36
f 37 155 36
f 38 33 41
f 33 35 41
f 39 40 34
f 41 39 38
f 39 34 38
f 42 505 43
f 43 505 46
f 44 505 42
f 45 47 31
f 47 114 31
f 46 45 43
f 32 44 42
f 31 114 116
f 45 46 47
f 49 48 50
f 176 51 100
f 49 50 590
f 50 48 176
f 48 49 180
f 177 176 48
f 173 147 50
f 576 506 44
f 53 506 576
f 54 53 82
f 576 44 575
f 44 506 505
f 506 53 54
f 120 56 55
f 572 56 120
f 55 56 59
f 56 572 94
f 120 55 58
f 59 56 94
f 167 55 59
f 58 57 518
f 58 55 57
f 60 94 572
f 167 57 55
f 63 61 64
f 61 62 64
f 166 213 62
f 64 62 213
f 213 166 162
f 61 165 62
f 165 61 21
f 66 65 67
f 65 73 68
f 274 68 73
f 68 274 69
f 274 75 272
f 74 67 71
f 69 274 523
f 272 75 72
f 71 67 246
f 67 65 331
f 331 65 216
f 68 69 170
f 170 69 523
f 73 65 66
f 66 67 74
f 71 70 74
f 70 271 72
f 74 70 72
f 75 274 73
f 74 72 75
f 66 75 73
f 66 74 75
f 207 590 592
f 49 590 207
f 83 592 158
f 77 76 158
f 76 46 505
f 76 80 46
f 80 76 77
f 78 47 80
f 78 79 81
f 81 79 35
f 79 78 80
f 114 47 78
f 78 81 114
f 92 79 80
f 46 80 47
f 114 81 116
f 36 81 35
f 83 82 84
f 82 332 84
f 332 82 52
f 52 82 53
f 85 86 88
f 165 86 164
f 86 85 164
f 87 85 235
f 164 85 87
f 24 236 86
f 86 165 24
f 87 235 303
f 303 235 346
f 85 88 235
f 86 236 88
f 25 236 24
f 165 21 24
f 77 92 80
f 92 77 89
f 113 91 90
f 92 93 79
f 93 91 113
f 160 113 90
f 160 90 593
f 90 89 593
f 89 90 92
f 90 91 92
f 91 93 92
f 95 215 214
f 29 215 95
f 215 29 64
f 95 60 96
f 59 94 97
f 98 95 214
f 98 97 60
f 60 97 94
f 60 95 98
f 103 176 100
f 217 176 101
f 101 176 103
f 100 102 103
f 217 101 331
f 102 99 103
f 99 544 103
f 340 108 139
f 107 104 154
f 23 8 12
f 108 105 106
f 105 108 341
f 8 23 107
f 106 107 108
f 106 8 107
f 107 138 108
f 110 109 111
f 112 93 113
f 93 112 35
f 109 112 113
f 111 109 113
f 36 115 81
f 81 115 116
f 116 115 117
f 116 30 31
f 119 121 118
f 58 121 119
f 119 569 120
f 569 119 118
f 518 121 58
f 120 569 572
f 118 121 516
f 119 120 58
f 126 123 127
f 123 126 124
f 124 126 125
f 125 126 130
f 127 128 203
f 122 128 127
f 127 123 122
f 438 123 132
f 123 124 132
f 431 124 125
f 126 131 130
f 126 127 131
f 132 136 129
f 124 431 136
f 125 205 431
f 125 130 205
f 205 130 206
f 131 127 203
f 128 122 411
f 122 123 438
f 132 129 133
f 134 133 135
f 135 133 129
f 124 136 132
f 138 137 139
f 140 139 137
f 139 108 138
f 138 154 137
f 107 154 138
f 144 143 141
f 141 142 146
f 149 142 151
f 151 142 141
f 151 141 143
f 143 144 209
f 145 141 146
f 143 209 140
f 141 145 144
f 147 142 148
f 209 144 447
f 144 376 447
f 146 142 173
f 147 148 159
f 148 142 149
f 149 37 150
f 37 149 152
f 143 140 137
f 143 137 151
f 152 153 155
f 153 152 154
f 152 137 154
f 137 152 151
f 36 155 115
f 153 117 155
f 117 153 20
f 151 152 149
f 155 117 115
f 95 157 156
f 156 29 95
f 583 156 157
f 96 157 95
f 158 54 82
f 158 506 54
f 160 159 161
f 161 111 160
f 160 111 113
f 111 161 110
f 147 159 593
f 159 160 593
f 162 163 280
f 166 163 162
f 163 62 164
f 164 62 165
f 62 163 166
f 87 163 164
f 97 304 167
f 346 167 304
f 167 59 97
f 304 97 214
f 142 147 173
f 168 146 172
f 146 168 145
f 173 172 146
f 168 170 169
f 171 169 170
f 168 172 68
f 145 168 169
f 169 171 363
f 171 170 523
f 170 168 68
f 172 173 218
f 145 169 144
f 169 376 144
f 376 169 363
f 174 583 584
f 174 175 156
f 583 174 156
f 176 218 50
f 218 176 217
f 50 218 173
f 30 19 63
f 63 28 30
f 64 28 63
f 178 179 180
f 177 48 180
f 177 180 179
f 207 180 49
f 181 184 182
f 184 183 182
f 185 183 439
f 179 181 177
f 51 177 181
f 270 181 182
f 226 182 183
f 183 184 439
f 211 184 179
f 184 181 179
f 207 83 84
f 83 207 592
f 405 186 191
f 296 187 188
f 186 405 223
f 191 188 187
f 188 189 192
f 188 191 189
f 188 192 296
f 190 191 186
f 405 191 187
f 192 189 193
f 193 189 194
f 194 189 195
f 195 189 196
f 196 189 197
f 197 189 198
f 199 198 200
f 198 189 200
f 189 191 200
f 191 190 200
f 200 190 201
f 201 190 202
f 204 203 265
f 206 130 131
f 330 205 329
f 205 206 329
f 131 203 204
f 204 329 206
f 204 206 131
f 208 281 210
f 208 209 447
f 209 208 210
f 140 209 210
f 179 178 211
f 211 178 212
f 212 178 180
f 82 83 158
f 213 304 214
f 213 162 304
f 214 215 213
f 98 214 97
f 213 215 64
f 217 216 218
f 172 216 65
f 217 331 216
f 218 216 172
f 172 65 68
f 219 220 221
f 367 220 219
f 252 221 251
f 307 219 221
f 222 223 226
f 183 222 226
f 223 222 225
f 224 222 229
f 227 225 228
f 225 222 228
f 222 224 228
f 222 183 229
f 230 231 253
f 253 231 308
f 231 316 308
f 330 230 253
f 308 307 252
f 307 221 252
f 253 308 252
f 236 13 234
f 306 234 13
f 236 234 88
f 234 233 88
f 513 233 232
f 233 306 232
f 306 233 234
f 235 88 237
f 513 88 233
f 239 238 377
f 105 238 239
f 51 270 100
f 177 51 176
f 240 11 242
f 316 231 241
f 241 231 230
f 316 241 315
f 315 241 242
f 242 11 315
f 315 11 314
f 586 240 243
f 240 242 243
f 242 241 243
f 333 243 244
f 243 241 244
f 245 246 192
f 192 246 296
f 246 383 440
f 246 245 383
f 383 245 247
f 247 245 248
f 248 245 193
f 245 192 193
f 249 299 522
f 299 249 250
f 263 299 250
f 252 251 253
f 319 221 220
f 330 253 289
f 253 251 289
f 251 221 295
f 544 254 101
f 101 254 331
f 331 254 297
f 297 254 296
f 254 544 407
f 388 255 256
f 547 256 510
f 258 259 260
f 260 259 261
f 259 388 261
f 263 250 264
f 84 265 212
f 212 265 128
f 265 84 332
f 367 219 266
f 365 266 267
f 267 266 268
f 269 268 266
f 266 365 367
f 102 100 270
f 99 102 406
f 270 182 406
f 406 102 270
f 523 272 382
f 272 273 382
f 275 382 276
f 382 273 276
f 276 273 277
f 273 272 277
f 272 72 277
f 72 271 277
f 277 271 278
f 279 278 271
f 272 523 274
f 162 280 303
f 303 280 87
f 87 280 163
f 283 281 282
f 250 249 282
f 282 249 283
f 448 285 284
f 262 263 284
f 284 286 262
f 284 285 286
f 448 284 264
f 264 284 263
f 513 237 88
f 288 377 238
f 105 452 238
f 238 452 288
f 330 289 290
f 290 289 291
f 291 289 292
f 289 295 292
f 292 295 293
f 293 295 294
f 295 289 251
f 246 297 296
f 297 246 67
f 246 440 71
f 298 262 300
f 262 298 299
f 299 298 522
f 262 299 263
f 301 300 302
f 302 300 533
f 533 300 262
f 303 304 162
f 304 303 346
f 517 232 305
f 232 306 305
f 305 306 578
f 249 307 283
f 283 307 309
f 307 308 309
f 307 249 219
f 283 309 342
f 310 300 311
f 311 300 301
f 249 266 219
f 249 522 266
f 312 522 310
f 310 522 298
f 310 298 300
f 315 317 316
f 317 315 318
f 314 313 315
f 313 318 315
f 318 313 543
f 221 319 295
f 295 319 294
f 319 320 294
f 294 320 321
f 320 450 321
f 321 450 322
f 320 319 366
f 212 128 411
f 449 450 323
f 324 449 325
f 449 323 325
f 323 366 325
f 325 366 326
f 326 366 327
f 270 51 181
f 328 256 438
f 547 438 256
f 256 328 257
f 204 241 230
f 230 330 329
f 204 230 329
f 67 331 297
f 265 203 128
f 265 244 204
f 244 332 333
f 332 334 333
f 334 332 585
f 585 332 52
f 244 265 332
f 335 235 237
f 346 235 335
f 336 205 330
f 290 337 330
f 337 338 330
f 338 336 330
f 339 340 139
f 341 340 318
f 317 318 342
f 318 340 342
f 342 340 339
f 139 140 339
f 257 328 133
f 132 133 328
f 343 443 134
f 134 443 133
f 443 257 133
f 344 288 345
f 288 344 377
f 518 57 287
f 346 57 167
f 440 352 70
f 70 352 353
f 347 353 348
f 348 353 349
f 349 353 350
f 350 353 351
f 351 353 352
f 71 440 70
f 70 353 271
f 353 354 271
f 355 354 356
f 356 354 357
f 357 354 358
f 358 354 359
f 359 354 360
f 360 354 361
f 354 353 361
f 353 347 361
f 361 347 362
f 376 363 285
f 532 363 171
f 327 366 364
f 365 366 367
f 366 365 364
f 364 365 368
f 267 369 365
f 369 368 365
f 220 367 319
f 367 366 319
f 129 373 370
f 371 370 372
f 370 373 372
f 374 373 375
f 373 136 454
f 136 373 129
f 448 376 285
f 447 376 448
f 108 340 341
f 239 377 18
f 344 14 377
f 382 378 532
f 378 529 532
f 531 529 378
f 379 378 380
f 381 380 382
f 380 378 382
f 412 383 384
f 384 383 385
f 385 383 386
f 247 386 383
f 389 255 390
f 255 388 390
f 390 388 391
f 391 388 392
f 388 387 392
f 392 387 393
f 393 387 394
f 394 387 395
f 395 387 396
f 396 387 397
f 398 399 400
f 400 399 401
f 399 397 401
f 397 387 401
f 402 401 388
f 401 387 388
f 389 403 255
f 403 404 255
f 226 405 406
f 187 407 405
f 182 226 406
f 202 190 408
f 408 190 409
f 190 186 409
f 186 225 409
f 409 225 410
f 410 225 227
f 225 186 223
f 226 223 405
f 438 411 122
f 351 352 413
f 413 352 414
f 414 352 415
f 415 352 416
f 352 440 416
f 440 412 416
f 417 416 418
f 416 412 418
f 418 412 419
f 419 412 420
f 420 412 421
f 422 421 423
f 421 412 423
f 423 412 424
f 425 426 427
f 426 428 427
f 428 429 427
f 429 424 427
f 424 412 427
f 342 281 283
f 140 210 339
f 210 281 339
f 5 345 430
f 5 430 542
f 136 431 454
f 433 434 435
f 434 432 435
f 432 478 435
f 435 478 436
f 478 431 436
f 431 205 436
f 436 205 437
f 437 205 336
f 346 335 57
f 287 57 335
f 281 342 339
f 309 316 317
f 317 342 309
f 438 547 439
f 438 439 411
f 411 439 211
f 441 425 442
f 425 427 442
f 427 412 442
f 384 442 412
f 383 412 440
f 261 388 444
f 388 257 444
f 257 443 444
f 444 443 445
f 343 446 443
f 446 445 443
f 208 447 264
f 264 447 448
f 309 308 316
f 366 323 320
f 323 450 320
f 322 450 451
f 451 450 324
f 450 449 324
f 452 430 288
f 430 345 288
f 208 282 281
f 250 282 264
f 264 282 208
f 454 453 373
f 373 453 375
f 375 453 455
f 455 453 456
f 456 453 457
f 457 453 458
f 458 453 459
f 453 454 459
f 459 454 460
f 460 454 461
f 461 454 462
f 237 287 335
f 212 411 211
f 187 296 407
f 407 296 254
f 132 328 438
f 279 271 463
f 463 271 464
f 465 466 467
f 466 464 467
f 464 271 467
f 355 468 354
f 468 469 354
f 469 467 354
f 467 271 354
f 462 454 470
f 470 454 471
f 471 454 472
f 473 474 475
f 476 477 478
f 477 475 478
f 478 475 454
f 475 474 454
f 474 472 454
f 431 478 454
f 479 432 480
f 480 432 481
f 481 432 482
f 482 432 483
f 483 432 484
f 484 485 486
f 486 485 487
f 487 485 488
f 434 489 432
f 489 490 432
f 490 488 432
f 488 485 432
f 485 484 432
f 491 432 492
f 432 479 492
f 493 255 494
f 494 255 404
f 256 255 510
f 184 211 439
f 497 496 498
f 498 496 499
f 499 496 500
f 500 496 501
f 501 496 502
f 496 495 502
f 502 495 503
f 503 495 504
f 158 76 506
f 76 505 506
f 543 452 341
f 241 204 244
f 507 510 508
f 508 510 509
f 493 509 255
f 509 510 255
f 520 570 511
f 570 512 511
f 511 519 517
f 515 511 516
f 516 511 512
f 570 520 588
f 520 511 517
f 519 515 513
f 519 511 515
f 232 517 519
f 513 515 237
f 287 514 518
f 514 515 121
f 515 516 121
f 516 512 118
f 512 570 568
f 519 513 232
f 237 515 514
f 237 514 287
f 518 514 121
f 266 522 269
f 521 269 522
f 275 381 382
f 402 388 524
f 524 388 525
f 525 388 526
f 526 388 527
f 527 388 259
f 105 341 452
f 504 495 528
f 495 510 528
f 510 507 528
f 363 529 530
f 285 530 286
f 286 530 531
f 530 529 531
f 529 363 532
f 363 530 285
f 302 533 534
f 534 533 535
f 535 533 536
f 536 533 537
f 537 533 538
f 533 262 538
f 262 286 538
f 286 531 538
f 538 531 539
f 539 531 540
f 379 541 378
f 541 540 378
f 540 531 378
f 1 542 313
f 542 543 313
f 341 318 543
f 452 543 430
f 543 542 430
f 407 406 405
f 103 544 101
f 544 99 407
f 99 406 407
f 171 382 532
f 382 171 523
f 521 522 545
f 545 522 546
f 312 546 522
f 495 185 510
f 547 510 185
f 476 478 548
f 548 478 549
f 549 478 550
f 550 478 551
f 551 478 552
f 552 478 553
f 478 432 553
f 553 432 491
f 185 439 547
f 40 554 34
f 40 555 554
f 34 554 37
f 554 150 37
f 149 150 148
f 150 159 148
f 159 150 161
f 555 161 554
f 161 150 554
f 40 39 555
f 555 39 110
f 110 161 555
f 556 557 372
f 558 559 372
f 559 371 372
f 372 560 558
f 561 372 562
f 557 563 372
f 563 564 372
f 564 562 372
f 565 372 561
f 560 372 565
f 374 566 373
f 373 566 372
f 566 556 372
f 571 567 157
f 567 583 157
f 567 568 570
f 569 568 571
f 571 157 96
f 583 567 588
f 568 118 512
f 118 568 569
f 572 569 571
f 568 567 571
f 567 570 588
f 96 60 571
f 571 60 572
f 576 577 573
f 32 577 576
f 577 574 573
f 574 577 582
f 32 576 575
f 579 574 580
f 580 574 581
f 581 574 582
f 578 577 584
f 584 577 32
f 574 579 585
f 577 578 582
f 584 583 589
f 589 583 520
f 580 581 10
f 520 305 589
f 576 573 53
f 581 582 587
f 587 582 306
f 520 583 588
f 584 32 174
f 573 574 52
f 52 574 585
f 585 579 334
f 579 580 334
f 334 580 586
f 10 581 587
f 306 582 578
f 517 305 520
f 573 52 53
f 333 334 243
f 334 586 243
f 586 580 10
f 578 589 305
f 578 584 589
f 212 207 84
f 212 180 207
f 591 77 592
f 89 591 593
f 593 591 590
f 77 591 89
f 590 591 592
f 593 590 147
f 147 590 50
f 158 592 77
f 594 595 228
f 595 596 228
f 596 597 228
f 597 598 228
f 598 599 228
f 599 600 228
f 601 229 495
f 224 601 594
f 495 229 185
f 229 601 224
f 602 595 603
f 595 594 603
f 603 594 604
f 604 594 605
f 594 601 605
f 605 601 606
f 606 601 607
f 607 601 608
f 497 608 496
f 608 601 496
f 496 601 495
f 185 229 183
f 594 228 224
f 135 129 370
f 256 257 388
# 999 faces, 0 coords texture

# End of File
